<?xml version="1.0" encoding="UTF-8"?>
<svg version="1.1" xmlns="http://www.w3.org/2000/svg" width="96" height="96">
<path d="M0 0 C3.27981751 2.06771104 4.84746007 3.77119011 7 7 C10.61260785 6.69894935 11.74509577 6.29131912 14.1875 3.5 C14.785625 2.675 15.38375 1.85 16 1 C19.34812298 -0.67406149 22.40977471 -0.72035018 26 0 C31.09880301 2.55969519 35.80486027 5.2072904 39 10 C39.56416481 15.02011061 39.01125434 20.07013508 38 25 C38.67546875 25.15855469 39.3509375 25.31710938 40.046875 25.48046875 C40.93890625 25.71378906 41.8309375 25.94710937 42.75 26.1875 C43.63171875 26.40792969 44.5134375 26.62835938 45.421875 26.85546875 C48.82778932 28.36748829 50.10528792 29.78854993 52 33 C52.39483767 35.8335409 52.56233548 38.18451429 52.5 41 C52.52320312 42.04800781 52.52320312 42.04800781 52.546875 43.1171875 C52.52033391 46.63388157 52.09102046 48.84572449 50.296875 51.88671875 C47.77145738 54.21027476 46.05443726 54.98639068 42.75 55.8125 C41.41195312 56.16248047 41.41195312 56.16248047 40.046875 56.51953125 C39.37140625 56.67808594 38.6959375 56.83664063 38 57 C38.165 57.804375 38.33 58.60875 38.5 59.4375 C39.99579074 70.09500902 39.99579074 70.09500902 37.5625 74.75 C32.96913471 78.78319879 28.01952125 82.23002539 21.75 82.5625 C17.50497087 81.92574563 15.99827748 80.99827748 13 78 C12.236875 77.2575 11.47375 76.515 10.6875 75.75 C10.130625 75.1725 9.57375 74.595 9 74 C8.2575 74.763125 7.515 75.52625 6.75 76.3125 C5.8425 77.199375 4.935 78.08625 4 79 C3.401875 79.598125 2.80375 80.19625 2.1875 80.8125 C-1.28561339 82.69790441 -4.23684358 82.88947334 -8 82 C-13.09617296 79.4209651 -17.79993206 76.80010192 -21 72 C-21.56416481 66.97988939 -21.01125434 61.92986492 -20 57 C-21.01320313 56.76216797 -21.01320313 56.76216797 -22.046875 56.51953125 C-22.93890625 56.28621094 -23.8309375 56.05289063 -24.75 55.8125 C-26.07257812 55.48185547 -26.07257812 55.48185547 -27.421875 55.14453125 C-30.82778932 53.63251171 -32.10528792 52.21145007 -34 49 C-34.39483767 46.1664591 -34.56233548 43.81548571 -34.5 41 C-34.52320313 39.95199219 -34.52320313 39.95199219 -34.546875 38.8828125 C-34.52033391 35.36611843 -34.09102046 33.15427551 -32.296875 30.11328125 C-29.77145738 27.78972524 -28.05443726 27.01360932 -24.75 26.1875 C-23.85796875 25.95417969 -22.9659375 25.72085938 -22.046875 25.48046875 C-21.37140625 25.32191406 -20.6959375 25.16335937 -20 25 C-20.2475 23.7625 -20.2475 23.7625 -20.5 22.5 C-21.27327553 17.0870713 -21.85403368 12.89372686 -19.5625 7.8125 C-14.13569936 1.8562554 -8.06097794 -1.20914669 0 0 Z M-10.25 9.5 C-11.30960938 10.19609375 -11.30960938 10.19609375 -12.390625 10.90625 C-12.92171875 11.2671875 -13.4528125 11.628125 -14 12 C-13.86980469 13.02480469 -13.73960938 14.04960937 -13.60546875 15.10546875 C-13.46472419 16.46599952 -13.3254802 17.8266861 -13.1875 19.1875 C-13.09791016 19.86103516 -13.00832031 20.53457031 -12.91601562 21.22851562 C-12.55108329 25.16594349 -12.80000727 26.73790426 -15.2265625 29.91796875 C-17.77697975 31.83257776 -19.11073448 32.66080714 -22.1875 33.125 C-26.22406812 33.59197813 -26.22406812 33.59197813 -28 37 C-28.59686061 42.50226079 -28.59686061 42.50226079 -26.5 47.375 C-24.10368892 48.9326022 -22.66707969 49.40683167 -19.9375 50 C-17.24961505 50.58562856 -16.14811197 50.87503053 -14 52.6875 C-11.66735293 58.08174635 -13.20652762 64.34650929 -14 70 C-9.06421823 73.70053908 -9.06421823 73.70053908 -3.25 75.125 C-0.29498181 73.64749091 1.07907866 71.64954667 3 69 C6.21630218 67.39184891 9.52189242 67.38582361 13 68 C15.875 70.375 15.875 70.375 18 73 C18.99 73.99 18.99 73.99 20 75 C25.04191372 74.7708221 27.93429477 72.82782291 32 70 C31.80470703 68.46279297 31.80470703 68.46279297 31.60546875 66.89453125 C31.46472419 65.53400048 31.3254802 64.1733139 31.1875 62.8125 C31.09791016 62.13896484 31.00832031 61.46542969 30.91601562 60.77148438 C30.55108329 56.83405651 30.80000727 55.26209574 33.2265625 52.08203125 C35.77697975 50.16742224 37.11073448 49.33919286 40.1875 48.875 C44.22406812 48.40802187 44.22406812 48.40802187 46 45 C46.31071928 41.0849371 46.49973251 38.26598903 45.0625 34.625 C42.26614286 32.42180953 39.54656653 32.1991029 36.09765625 31.54296875 C34 31 34 31 31.9375 29.3125 C29.7272143 23.86046195 31.20416887 17.67029682 32 12 C27.06421823 8.29946092 27.06421823 8.29946092 21.25 6.875 C18.29498181 8.35250909 16.92092134 10.35045333 15 13 C11.78369782 14.60815109 8.47810758 14.61417639 5 14 C2.125 11.625 2.125 11.625 0 9 C-0.66 8.34 -1.32 7.68 -2 7 C-6.13978192 7 -6.98573504 7.32382336 -10.25 9.5 Z " fill="#0E1629" transform="translate(39,7)"/>
<path d="M0 0 C4.3067174 1.68523725 7.94501184 4.79699953 10 9 C10.76353678 13.85951913 10.67422206 18.27698808 8.875 22.875 C2.84386282 29.71028881 2.84386282 29.71028881 -1.66015625 30.41796875 C-8.95051481 30.62402195 -12.38738202 29.32232709 -17.8125 24.5 C-20.73295265 20.82409903 -20.58507581 17.09200065 -20.3515625 12.55078125 C-19.65081506 7.46646927 -16.93477625 4.12189617 -12.94140625 0.94921875 C-8.85292947 -1.04977493 -4.40437771 -0.60703521 0 0 Z M-11 9 C-13.06196218 11.2140989 -13.06196218 11.2140989 -14 14 C-13.23960803 17.80195984 -12.23036592 20.72677954 -9 23 C-5.82304865 24.17045576 -4.51116739 24.21907174 -1.375 22.875 C1.34712589 20.72595325 2.72105706 19.23497332 4 16 C3.23960803 12.19804016 2.23036592 9.27322046 -1 7 C-5.32893596 5.40512886 -7.43071803 6.18214581 -11 9 Z " fill="#0E1629" transform="translate(53,33)"/>
</svg>
